<?xml version="1.0" encoding="utf-8"?>
<!-- Generator: Adobe Illustrator 16.0.0, SVG Export Plug-In . SVG Version: 6.00 Build 0)  -->
<!DOCTYPE svg PUBLIC "-//W3C//DTD SVG 1.1//EN" "http://www.w3.org/Graphics/SVG/1.1/DTD/svg11.dtd">
<svg version="1.1" id="Layer_1" xmlns="http://www.w3.org/2000/svg" xmlns:xlink="http://www.w3.org/1999/xlink" x="0px" y="0px"
	 width="55.157px" height="49.774px" viewBox="0 0 55.157 49.774" enable-background="new 0 0 55.157 49.774" xml:space="preserve">
<g>
	<g>
		<g>
			<g>
				<path fill="#FFFFFF" d="M1.439,6.375c-0.344,0-0.687-0.145-0.927-0.426C0.073,5.437,0.134,4.666,0.646,4.229
					C3.44,1.836,6.998,0.335,10.662,0.004c0.674-0.053,1.265,0.435,1.325,1.104c0.061,0.672-0.435,1.265-1.105,1.323
					C7.718,2.719,4.646,4.014,2.232,6.083C2.002,6.277,1.72,6.375,1.439,6.375z"/>
			</g>
			<g>
				<path fill="#FFFFFF" d="M53.72,6.375c-0.281,0-0.562-0.098-0.792-0.292c-2.416-2.069-5.488-3.364-8.652-3.651
					C43.604,2.373,43.11,1.78,43.17,1.108c0.062-0.67,0.656-1.157,1.325-1.104c3.663,0.331,7.222,1.832,10.019,4.225
					c0.511,0.438,0.571,1.208,0.132,1.719C54.405,6.23,54.063,6.375,53.72,6.375z"/>
			</g>
		</g>
		<g>
			<path fill="#FFFFFF" d="M46.018,8.255c-5.048,0-9.141,4.233-9.141,9.456c0,5.229,4.093,9.46,9.141,9.46s9.14-4.231,9.14-9.46
				C55.157,12.488,51.065,8.255,46.018,8.255z M46.018,21.754c-2.156,0-3.905-1.812-3.905-4.043c0-2.23,1.749-4.039,3.905-4.039
				s3.903,1.809,3.903,4.039C49.921,19.942,48.174,21.754,46.018,21.754z"/>
			<path fill="#FFFFFF" d="M9.141,8.255C4.093,8.255,0,12.488,0,17.711c0,5.229,4.093,9.46,9.141,9.46c5.049,0,9.14-4.231,9.14-9.46
				C18.28,12.488,14.189,8.255,9.141,8.255z M9.141,21.754c-2.156,0-3.905-1.812-3.905-4.043c0-2.23,1.749-4.039,3.905-4.039
				c2.155,0,3.903,1.809,3.903,4.039C13.044,19.942,11.296,21.754,9.141,21.754z"/>
		</g>
	</g>
	<path fill-rule="evenodd" clip-rule="evenodd" fill="#FFFFFF" d="M39.159,34.774H16.009c-4.16,0-7.117,3.504-7.117,7.334
		c0,4.162,2.957,7.666,7.117,7.666h23.149c3.854,0,7.119-3.504,7.119-7.666C46.278,38.278,43.013,34.774,39.159,34.774z
		 M38.705,46.774H16.295c-2.537,0-4.339-2.064-4.339-4.602c0-2.334,1.803-4.398,4.339-4.398h22.409c2.35,0,4.341,2.064,4.341,4.398
		C43.045,44.71,41.055,46.774,38.705,46.774z"/>
</g>
</svg>
