<?xml version="1.0" encoding="utf-8"?>
<!-- Generator: Adobe Illustrator 16.0.0, SVG Export Plug-In . SVG Version: 6.00 Build 0)  -->
<!DOCTYPE svg PUBLIC "-//W3C//DTD SVG 1.1//EN" "http://www.w3.org/Graphics/SVG/1.1/DTD/svg11.dtd">
<svg version="1.1" id="Layer_1" xmlns="http://www.w3.org/2000/svg" xmlns:xlink="http://www.w3.org/1999/xlink" x="0px" y="0px"
	 width="61.6px" height="48.929px" viewBox="0 0 61.6 48.929" enable-background="new 0 0 61.6 48.929" xml:space="preserve">
<g>
	<g>
		<g>
			<g>
				<g>
					<ellipse fill="#FFFFFF" cx="8.405" cy="21.405" rx="5.991" ry="8.504"/>
				</g>
			</g>
		</g>
		<g>
			<g>
				<g>
					<ellipse fill="#FFFFFF" cx="53.194" cy="21.405" rx="5.991" ry="8.504"/>
				</g>
			</g>
		</g>
	</g>
	<g>
		<g>
			<g>
				<path fill="#FFFFFF" d="M17.93,15.815c-0.708,0-1.367-0.465-1.578-1.181C14.593,8.654,8.605,4.089,1.458,3.277
					c-0.901-0.1-1.55-0.913-1.448-1.819c0.103-0.9,0.91-1.557,1.819-1.445c8.442,0.955,15.548,6.461,17.68,13.695
					c0.255,0.871-0.242,1.783-1.114,2.041C18.241,15.798,18.083,15.815,17.93,15.815z"/>
			</g>
		</g>
		<g>
			<g>
				<path fill="#FFFFFF" d="M43.672,15.815c-0.153,0-0.309-0.018-0.466-0.066c-0.873-0.258-1.369-1.17-1.111-2.041
					c2.127-7.234,9.231-12.74,17.677-13.695c0.917-0.107,1.715,0.545,1.817,1.445c0.103,0.906-0.545,1.717-1.447,1.819
					C52.996,4.089,47.01,8.654,45.248,14.635C45.038,15.351,44.382,15.815,43.672,15.815z"/>
			</g>
		</g>
	</g>
	<g>
		<g>
			<path fill="#FFFFFF" d="M42.544,48.929c-0.647,0-1.296-0.236-1.806-0.711c-2.442-2.279-5.778-3.607-9.393-3.745
				c-4.008-0.177-7.818,1.202-10.461,3.723c-1.06,1.011-2.736,0.972-3.748-0.087c-1.01-1.06-0.972-2.738,0.088-3.749
				c3.672-3.503,8.899-5.392,14.326-5.185c4.883,0.188,9.43,2.02,12.801,5.164c1.072,0.997,1.128,2.676,0.132,3.746
				C43.962,48.646,43.254,48.929,42.544,48.929z"/>
		</g>
	</g>
</g>
</svg>
