<?xml version="1.0" encoding="utf-8"?>
<!-- Generator: Adobe Illustrator 16.0.0, SVG Export Plug-In . SVG Version: 6.00 Build 0)  -->
<!DOCTYPE svg PUBLIC "-//W3C//DTD SVG 1.1//EN" "http://www.w3.org/Graphics/SVG/1.1/DTD/svg11.dtd">
<svg version="1.1" id="Layer_1" xmlns="http://www.w3.org/2000/svg" xmlns:xlink="http://www.w3.org/1999/xlink" x="0px" y="0px"
	 width="57.766px" height="46.691px" viewBox="0 0 57.766 46.691" enable-background="new 0 0 57.766 46.691" xml:space="preserve">
<g>
	<g>
		<g>
			<g>
				<g>
					<ellipse fill="#FFFFFF" cx="12.268" cy="20.475" rx="4.445" ry="6.308"/>
				</g>
			</g>
		</g>
		<g>
			<g>
				<g>
					<ellipse fill="#FFFFFF" cx="48.312" cy="20.475" rx="4.445" ry="6.308"/>
				</g>
			</g>
		</g>
	</g>
	<g>
		<g>
			<path fill="#FFFFFF" d="M43.234,44.38c1.125,0.229,1.897-1.444,1.151-2.543c-3.28-4.835-8.369-7.941-14.095-7.941
				c-5.726,0-10.815,3.106-14.095,7.941c-0.746,1.099,0.025,2.772,1.15,2.543c3.886-0.795,8.285-1.242,12.944-1.242
				C34.95,43.138,39.348,43.585,43.234,44.38z"/>
		</g>
	</g>
	<g>
		<g>
			<path fill="#FFFFFF" d="M56.355,9.196c-0.071,0-0.144-0.007-0.217-0.018c-7.032-1.086-10.566-6.792-10.713-7.034
				c-0.404-0.667-0.191-1.534,0.474-1.938c0.666-0.406,1.531-0.193,1.937,0.473c0.053,0.083,3.053,4.834,8.734,5.712
				c0.771,0.12,1.298,0.84,1.18,1.607C57.641,8.696,57.04,9.196,56.355,9.196z"/>
		</g>
		<g>
			<path fill="#FFFFFF" d="M4.225,9.196c-0.684,0-1.285-0.498-1.393-1.198C2.713,7.23,3.241,6.511,4.011,6.391
				c5.748-0.89,8.703-5.661,8.732-5.709c0.403-0.667,1.269-0.884,1.939-0.476c0.667,0.404,0.878,1.271,0.475,1.938
				c-0.148,0.242-3.682,5.948-10.714,7.034C4.369,9.189,4.296,9.196,4.225,9.196z"/>
		</g>
	</g>
	<g>
		<path fill="#FFFFFF" d="M12.267,40.557c0,3.387-2.746,6.135-6.133,6.135C2.746,46.691,0,43.943,0,40.557
			c0-2.591,3.585-8.735,5.273-11.485c0.395-0.643,1.324-0.643,1.719,0C8.681,31.821,12.267,37.966,12.267,40.557z"/>
	</g>
</g>
</svg>
