<?xml version="1.0" encoding="utf-8"?>
<!-- Generator: Adobe Illustrator 16.0.0, SVG Export Plug-In . SVG Version: 6.00 Build 0)  -->
<!DOCTYPE svg PUBLIC "-//W3C//DTD SVG 1.1//EN" "http://www.w3.org/Graphics/SVG/1.1/DTD/svg11.dtd">
<svg version="1.1" id="Layer_1" xmlns="http://www.w3.org/2000/svg" xmlns:xlink="http://www.w3.org/1999/xlink" x="0px" y="0px"
	 width="59.297px" height="35.588px" viewBox="0 0 59.297 35.588" enable-background="new 0 0 59.297 35.588" xml:space="preserve">
<g>
	<g>
		<g>
			<g>
				<path fill="#FFFFFF" d="M58.26,6.296c0.444,0.276,1.037-0.038,1.037-0.565c0-0.005,0-0.009,0-0.013
					C59.297,2.561,56.738,0,53.581,0c-3.158,0-5.717,2.561-5.717,5.718c0,0.004,0,0.008,0,0.013c0,0.527,0.593,0.842,1.041,0.565
					c1.359-0.841,2.96-1.326,4.676-1.326C55.296,4.97,56.897,5.455,58.26,6.296z"/>
			</g>
		</g>
		<g>
			<g>
				<path fill="#FFFFFF" d="M10.395,6.296c0.447,0.276,1.038-0.038,1.041-0.565c0-0.005,0-0.009,0-0.013
					C11.436,2.561,8.875,0,5.716,0C2.559,0,0,2.561,0,5.718C0,5.722,0,5.726,0,5.73c0.001,0.527,0.592,0.842,1.041,0.565
					C2.399,5.455,4,4.97,5.716,4.97C7.433,4.97,9.034,5.455,10.395,6.296z"/>
			</g>
		</g>
	</g>
	<g>
		<g>
			<g>
				<path fill="#FFFFFF" d="M29.884,35.588c-7.243,0-14.41-2.801-19.663-7.684c-0.855-0.796-0.905-2.135-0.108-2.991
					c0.794-0.855,2.135-0.906,2.99-0.108c4.479,4.161,10.595,6.549,16.781,6.549c5.965,0,11.924-2.244,16.349-6.157
					c0.877-0.772,2.213-0.69,2.987,0.184c0.774,0.876,0.692,2.213-0.184,2.987C43.772,33.023,36.971,35.588,29.884,35.588z"/>
			</g>
		</g>
	</g>
</g>
</svg>
