<?xml version="1.0" encoding="utf-8"?>
<!-- Generator: Adobe Illustrator 16.0.0, SVG Export Plug-In . SVG Version: 6.00 Build 0)  -->
<!DOCTYPE svg PUBLIC "-//W3C//DTD SVG 1.1//EN" "http://www.w3.org/Graphics/SVG/1.1/DTD/svg11.dtd">
<svg version="1.1" id="Layer_1" xmlns="http://www.w3.org/2000/svg" xmlns:xlink="http://www.w3.org/1999/xlink" x="0px" y="0px"
	 width="69.225px" height="40.24px" viewBox="0 0 69.225 40.24" enable-background="new 0 0 69.225 40.24" xml:space="preserve">
<g>
	<path fill="#FFFFFF" d="M67.606,1.133C65.1,0.63,61.071,0.106,57.185,0.012c-5.257-0.125-12.143,0.776-16.424,2.203
		c-2.25,0.749-5.034,0.872-6.146,0.893c-1.109-0.021-3.908-0.144-6.154-0.893c-4.283-1.427-11.171-2.328-16.424-2.203
		C8.15,0.106,4.124,0.63,1.615,1.133C0.503,1.357-0.204,2.45,0.052,3.556l0.267,1.15C0.477,5.377,0.994,5.87,1.644,6.102
		c0.334,0.12,0.656,0.338,0.801,0.73c0.45,1.209,2.887,8.399,4.207,11.056c1.081,2.174,4.01,4.039,10.817,4.065
		c9.688,0.039,13.044-6.368,14.584-10.507c0.161-0.432,0.406-1.26,0.626-2.063c0.316-1.149,1.013-2.28,1.327-2.443
		c0.183-0.093,0.401-0.171,0.609-0.171c0.216,0,0.431,0.078,0.617,0.171c0.31,0.163,0.992,1.294,1.313,2.443
		c0.219,0.804,0.46,1.632,0.623,2.063c1.539,4.139,4.895,10.546,14.582,10.507c6.809-0.026,9.74-1.892,10.818-4.065
		c1.319-2.656,3.753-9.847,4.21-11.056c0.145-0.393,0.465-0.61,0.801-0.73c0.649-0.231,1.166-0.725,1.323-1.396l0.268-1.151
		C69.428,2.449,68.719,1.357,67.606,1.133z"/>
	<g>
		<path fill="#FFFFFF" d="M43.842,40.24c-1.147,0-2.318-0.085-3.507-0.263c-1.156-0.175-1.952-1.253-1.779-2.409
			c0.174-1.153,1.244-1.949,2.408-1.778c6.696,1.001,12.649-1.528,15.158-6.456c0.531-1.041,1.806-1.454,2.847-0.924
			c1.042,0.53,1.455,1.806,0.925,2.847C57.009,36.918,50.92,40.24,43.842,40.24z"/>
	</g>
</g>
</svg>
