<?xml version="1.0"?>
<!--Icons from directory ""-->
<svg xmlns="http://www.w3.org/2000/svg" width="69" height="253" viewBox="0 0 69 253"><svg xmlns:xlink="http://www.w3.org/1999/xlink" id="emoji-01" xml:space="preserve" height="49" viewBox="0 0 61.6 48.929" width="62" version="1.1" y="0" x="0px" enable-background="new 0 0 61.6 48.929">					<ellipse cy="21.405" cx="8.405" rx="5.991" ry="8.504" fill="#fff"/>					<ellipse cy="21.405" cx="53.194" rx="5.991" ry="8.504" fill="#fff"/>				<path d="m17.93 15.815c-0.708 0-1.367-0.465-1.578-1.181-1.759-5.98-7.747-10.545-14.894-11.357-0.901-0.1-1.55-0.913-1.448-1.819 0.103-0.9 0.91-1.557 1.819-1.445 8.442 0.955 15.548 6.461 17.68 13.695 0.255 0.871-0.242 1.783-1.114 2.041-0.154 0.049-0.312 0.066-0.465 0.066z" fill="#fff"/>				<path d="m43.672 15.815c-0.153 0-0.309-0.018-0.466-0.066-0.873-0.258-1.369-1.17-1.111-2.041 2.127-7.234 9.231-12.74 17.677-13.695 0.917-0.107 1.715 0.545 1.817 1.445 0.103 0.906-0.545 1.717-1.447 1.819-7.146 0.812-13.132 5.377-14.894 11.358-0.21 0.716-0.866 1.18-1.576 1.18z" fill="#fff"/>			<path d="m42.544 48.929c-0.647 0-1.296-0.236-1.806-0.711-2.442-2.279-5.778-3.607-9.393-3.745-4.008-0.177-7.818 1.202-10.461 3.723-1.06 1.011-2.736 0.972-3.748-0.087-1.01-1.06-0.972-2.738 0.088-3.749 3.672-3.503 8.899-5.392 14.326-5.185 4.883 0.188 9.43 2.02 12.801 5.164 1.072 0.997 1.128 2.676 0.132 3.746-0.521 0.561-1.229 0.844-1.939 0.844z" fill="#fff"/></svg><svg xmlns:xlink="http://www.w3.org/1999/xlink" id="emoji-02" xml:space="preserve" height="47" viewBox="0 0 57.766 46.691" width="58" version="1.1" y="49" x="0px" enable-background="new 0 0 57.766 46.691">					<ellipse cy="20.475" cx="12.268" rx="4.445" ry="6.308" fill="#fff"/>					<ellipse cy="20.475" cx="48.312" rx="4.445" ry="6.308" fill="#fff"/>			<path d="m43.234 44.38c1.125 0.229 1.897-1.444 1.151-2.543-3.28-4.835-8.369-7.941-14.095-7.941s-10.815 3.106-14.095 7.941c-0.746 1.099 0.025 2.772 1.15 2.543 3.886-0.795 8.285-1.242 12.944-1.242 4.661 0 9.059 0.447 12.945 1.242z" fill="#fff"/>			<path d="m56.355 9.196c-0.071 0-0.144-0.007-0.217-0.018-7.032-1.086-10.566-6.792-10.713-7.034-0.404-0.667-0.191-1.534 0.474-1.938 0.666-0.406 1.531-0.193 1.937 0.473 0.053 0.083 3.053 4.834 8.734 5.712 0.771 0.12 1.298 0.84 1.18 1.607-0.109 0.698-0.71 1.198-1.395 1.198z" fill="#fff"/>			<path d="m4.225 9.196c-0.684 0-1.285-0.498-1.393-1.198-0.119-0.768 0.409-1.487 1.179-1.607 5.748-0.89 8.703-5.661 8.732-5.709 0.403-0.667 1.269-0.884 1.939-0.476 0.667 0.404 0.878 1.271 0.475 1.938-0.148 0.242-3.682 5.948-10.714 7.034-0.074 0.011-0.147 0.018-0.218 0.018z" fill="#fff"/>		<path d="m12.267 40.557c0 3.387-2.746 6.135-6.133 6.135-3.388-0.001-6.134-2.749-6.134-6.135 0-2.591 3.585-8.735 5.273-11.485 0.395-0.643 1.324-0.643 1.719 0 1.689 2.749 5.275 8.894 5.275 11.485z" fill="#fff"/></svg><svg xmlns:xlink="http://www.w3.org/1999/xlink" id="emoji-03" xml:space="preserve" height="40" viewBox="0 0 69.225 40.24" width="69" version="1.1" y="96" x="0px" enable-background="new 0 0 69.225 40.24">	<path d="m67.606 1.133c-2.506-0.503-6.535-1.027-10.421-1.121-5.257-0.125-12.143 0.776-16.424 2.203-2.25 0.749-5.034 0.872-6.146 0.893-1.109-0.021-3.908-0.144-6.154-0.893-4.283-1.427-11.171-2.328-16.424-2.203-3.887 0.094-7.913 0.618-10.422 1.121-1.112 0.224-1.819 1.317-1.563 2.423l0.267 1.15c0.158 0.671 0.675 1.164 1.325 1.396 0.334 0.12 0.656 0.338 0.801 0.73 0.45 1.209 2.887 8.399 4.207 11.056 1.081 2.174 4.01 4.039 10.817 4.065 9.688 0.039 13.044-6.368 14.584-10.507 0.161-0.432 0.406-1.26 0.626-2.063 0.316-1.149 1.013-2.28 1.327-2.443 0.183-0.093 0.401-0.171 0.609-0.171 0.216 0 0.431 0.078 0.617 0.171 0.31 0.163 0.992 1.294 1.313 2.443 0.219 0.804 0.46 1.632 0.623 2.063 1.539 4.139 4.895 10.546 14.582 10.507 6.809-0.026 9.74-1.892 10.818-4.065 1.319-2.656 3.753-9.847 4.21-11.056 0.145-0.393 0.465-0.61 0.801-0.73 0.649-0.231 1.166-0.725 1.323-1.396l0.268-1.151c0.258-1.106-0.451-2.198-1.564-2.422z" fill="#fff"/>		<path d="m43.842 40.24c-1.147 0-2.318-0.085-3.507-0.263-1.156-0.175-1.952-1.253-1.779-2.409 0.174-1.153 1.244-1.949 2.408-1.778 6.696 1.001 12.649-1.528 15.158-6.456 0.531-1.041 1.806-1.454 2.847-0.924 1.042 0.53 1.455 1.806 0.925 2.847-2.885 5.661-8.974 8.983-16.052 8.983z" fill="#fff"/></svg><svg xmlns:xlink="http://www.w3.org/1999/xlink" id="emoji-04" xml:space="preserve" height="50" viewBox="0 0 55.157 49.774" width="55" version="1.1" y="136" x="0px" enable-background="new 0 0 55.157 49.774">				<path d="m1.439 6.375c-0.344 0-0.687-0.145-0.927-0.426-0.439-0.512-0.378-1.283 0.134-1.72 2.794-2.393 6.352-3.894 10.016-4.225 0.674-0.053 1.265 0.435 1.325 1.104 0.061 0.672-0.435 1.265-1.105 1.323-3.164 0.288-6.236 1.583-8.65 3.652-0.23 0.194-0.512 0.292-0.793 0.292z" fill="#fff"/>				<path d="m53.72 6.375c-0.281 0-0.562-0.098-0.792-0.292-2.416-2.069-5.488-3.364-8.652-3.651-0.672-0.059-1.166-0.652-1.106-1.324 0.062-0.67 0.656-1.157 1.325-1.104 3.663 0.331 7.222 1.832 10.019 4.225 0.511 0.438 0.571 1.208 0.132 1.719-0.241 0.282-0.583 0.427-0.926 0.427z" fill="#fff"/>		<g fill="#fff">			<path d="m46.018 8.255c-5.048 0-9.141 4.233-9.141 9.456 0 5.229 4.093 9.46 9.141 9.46s9.14-4.231 9.14-9.46c-0.001-5.223-4.093-9.456-9.14-9.456zm0 13.499c-2.156 0-3.905-1.812-3.905-4.043 0-2.23 1.749-4.039 3.905-4.039s3.903 1.809 3.903 4.039c0 2.231-1.747 4.043-3.903 4.043z"/>			<path d="m9.141 8.255c-5.048 0-9.141 4.233-9.141 9.456 0 5.229 4.093 9.46 9.141 9.46 5.049 0 9.14-4.231 9.14-9.46-0.001-5.223-4.092-9.456-9.14-9.456zm0 13.499c-2.156 0-3.905-1.812-3.905-4.043 0-2.23 1.749-4.039 3.905-4.039 2.155 0 3.903 1.809 3.903 4.039 0 2.231-1.748 4.043-3.903 4.043z"/>		</g>	<path fill="#fff" clip-rule="evenodd" d="m39.159 34.774h-23.15c-4.16 0-7.117 3.504-7.117 7.334 0 4.162 2.957 7.666 7.117 7.666h23.149c3.854 0 7.119-3.504 7.119-7.666 0.001-3.83-3.264-7.334-7.118-7.334zm-0.454 12h-22.41c-2.537 0-4.339-2.064-4.339-4.602 0-2.334 1.803-4.398 4.339-4.398h22.409c2.35 0 4.341 2.064 4.341 4.398 0 2.538-1.99 4.602-4.34 4.602z" fill-rule="evenodd"/></svg><svg xmlns:xlink="http://www.w3.org/1999/xlink" id="emoji-05" xml:space="preserve" height="31" viewBox="0 0 45.29 30.859" width="45" version="1.1" y="186" x="0px" enable-background="new 0 0 45.29 30.859">		<path d="m42.395 30.859h-39.499c-1.168 0-2.116-0.947-2.116-2.117 0-1.168 0.948-2.116 2.116-2.116h39.498c1.169 0 2.116 0.948 2.116 2.116 0.001 1.17-0.947 2.117-2.115 2.117z" fill="#fff"/>		<circle cy="4.568" cx="40.721" r="4.569" fill="#fff"/>		<circle cy="4.568" cx="4.569" r="4.569" fill="#fff"/></svg><svg xmlns:xlink="http://www.w3.org/1999/xlink" id="emoji-06" xml:space="preserve" height="36" viewBox="0 0 59.297 35.588" width="59" version="1.1" y="217" x="0px" enable-background="new 0 0 59.297 35.588">				<path d="m58.26 6.296c0.444 0.276 1.037-0.038 1.037-0.565v-0.013c0-3.157-2.559-5.718-5.716-5.718-3.158 0-5.717 2.561-5.717 5.718v0.013c0 0.527 0.593 0.842 1.041 0.565 1.359-0.841 2.96-1.326 4.676-1.326 1.715 0 3.316 0.485 4.679 1.326z" fill="#fff"/>				<path d="m10.395 6.296c0.447 0.276 1.038-0.038 1.041-0.565v-0.013c0-3.157-2.561-5.718-5.72-5.718-3.157 0-5.716 2.561-5.716 5.718v0.012c0.001 0.527 0.592 0.842 1.041 0.565 1.358-0.84 2.959-1.325 4.675-1.325 1.717 0 3.318 0.485 4.679 1.326z" fill="#fff"/>				<path d="m29.884 35.588c-7.243 0-14.41-2.801-19.663-7.684-0.855-0.796-0.905-2.135-0.108-2.991 0.794-0.855 2.135-0.906 2.99-0.108 4.479 4.161 10.595 6.549 16.781 6.549 5.965 0 11.924-2.244 16.349-6.157 0.877-0.772 2.213-0.69 2.987 0.184 0.774 0.876 0.692 2.213-0.184 2.987-5.264 4.655-12.065 7.22-19.152 7.22z" fill="#fff"/></svg></svg>
