<?xml version="1.0" encoding="utf-8"?>
<!-- Generator: Adobe Illustrator 16.0.0, SVG Export Plug-In . SVG Version: 6.00 Build 0)  -->
<!DOCTYPE svg PUBLIC "-//W3C//DTD SVG 1.1//EN" "http://www.w3.org/Graphics/SVG/1.1/DTD/svg11.dtd">
<svg version="1.1" id="Layer_1" xmlns="http://www.w3.org/2000/svg" xmlns:xlink="http://www.w3.org/1999/xlink" x="0px" y="0px"
	 width="123.201px" height="36.352px" viewBox="0 0 123.201 36.352" enable-background="new 0 0 123.201 36.352"
	 xml:space="preserve">
<path fill="#435353" d="M41.035,32.731c-2.73-2.63-4.094-6.195-4.094-10.698s1.285-8.056,3.857-10.661
	c2.57-2.604,5.945-3.907,10.123-3.907s7.557,1.356,10.137,4.069c2.562,2.713,3.846,6.246,3.846,10.599s-1.236,7.812-3.709,10.374
	c-2.471,2.563-5.829,3.845-10.073,3.845C46.877,36.352,43.516,35.146,41.035,32.731z M50.373,21.671v4.369
	c0.116,0.117,0.308,0.175,0.574,0.175c0.266,0,0.457-0.091,0.574-0.274c0.116-0.184,0.175-0.5,0.175-0.949v-3.57
	c0-1.598-0.067-2.658-0.2-3.183s-0.383-0.786-0.748-0.786c-0.234,0-0.434,0.083-0.6,0.249
	C50.298,19.349,50.373,20.673,50.373,21.671z"/>
<path fill="#435353" d="M69.996,32.731c-2.729-2.63-4.094-6.195-4.094-10.698s1.285-8.056,3.857-10.661
	c2.571-2.604,5.945-3.907,10.124-3.907c4.177,0,7.556,1.356,10.136,4.069c2.563,2.713,3.846,6.246,3.846,10.599
	s-1.236,7.812-3.708,10.374c-2.472,2.563-5.829,3.845-10.073,3.845C75.839,36.352,72.477,35.146,69.996,32.731z M79.334,21.671
	v4.369c0.117,0.117,0.309,0.175,0.574,0.175c0.267,0,0.458-0.091,0.574-0.274c0.117-0.184,0.176-0.5,0.176-0.949v-3.57
	c0-1.598-0.067-2.658-0.2-3.183c-0.134-0.524-0.384-0.786-0.749-0.786c-0.233,0-0.434,0.083-0.6,0.249
	C79.26,19.349,79.334,20.673,79.334,21.671z"/>
<path fill="#435353" d="M107.597,3.12c0.882-1.031,1.856-1.81,2.921-2.334C111.583,0.263,112.939,0,114.588,0
	c1.997,0,3.619,0.558,4.868,1.673c1.281,1.198,1.923,2.812,1.923,4.844v16.478c0,2.48,0.599,4.095,1.797,4.844
	c0.017,0.083,0.025,0.241,0.025,0.475v0.449c0,2.364-0.716,4.203-2.147,5.518c-1.265,1.165-2.829,1.747-4.694,1.747
	c-1.297,0-2.421-0.273-3.369-0.823c-1.116-0.632-1.898-1.498-2.348-2.597c-0.566,0-0.849,0.275-0.849,0.824
	c0,0.25,0.095,0.537,0.287,0.861c0.19,0.324,0.453,0.611,0.786,0.861c-0.982,0.582-2.256,0.873-3.82,0.873
	c-2.113,0-4.09-0.486-5.93-1.46c-1.839-0.974-3.299-2.442-4.381-4.407c-1.248-2.246-1.873-4.968-1.873-8.164
	c0-4.26,1.194-7.605,3.583-10.036c2.388-2.431,5.438-3.646,9.15-3.646c2.197,0,4.11,0.416,5.742,1.248
	c0.183-0.182,0.274-0.374,0.274-0.574c0-0.498-0.591-0.924-1.772-1.272c-1.182-0.35-2.372-0.524-3.569-0.524
	C108.271,5.493,108.046,4.136,107.597,3.12z M109.395,17.876c-0.167-0.166-0.367-0.25-0.6-0.25c-0.366,0-0.615,0.263-0.749,0.787
	c-0.134,0.523-0.2,1.586-0.2,3.184v2.546c0,0.45,0.059,0.767,0.176,0.949c0.115,0.183,0.308,0.274,0.574,0.274
	c0.266,0,0.457-0.059,0.574-0.175v-3.346C109.17,20.215,109.244,18.892,109.395,17.876z"/>
<g>
	<circle fill="#435353" cx="24.463" cy="17.125" r="1.886"/>
	<circle fill="#435353" cx="11.236" cy="17.125" r="1.886"/>
	<path fill="#435353" d="M33.806,10.111c-0.101-0.849-0.175-1.456-0.225-1.822c-0.217-1.948-0.912-3.333-2.085-4.157
		c-1.174-0.824-2.976-1.236-5.405-1.236c-1.299,0-2.497,0.138-3.596,0.412c-1.099,0.275-1.989,0.596-2.671,0.961l-2.372,9.863
		c-0.666-0.018-0.999-0.316-0.999-0.899c0-0.233,0.033-0.475,0.101-0.724l0.873-3.67l-1.373-4.595
		c-1.598-0.899-3.612-1.349-6.042-1.349c-3.346,0-5.876,0.766-7.59,2.297c-0.283,1.781-0.657,4.91-1.123,9.389
		C0.433,23.169,0,28.554,0,30.733c0,1.748,0.982,3.113,2.946,4.096c1.598,0.799,3.416,1.197,5.455,1.197s3.611-0.145,4.719-0.436
		c1.106-0.291,2.16-0.762,3.158-1.411l0.2-4.719c-0.866-0.101-1.689-0.416-2.472-0.948c-0.999-0.633-1.831-1.507-2.497-2.622
		c-0.199-0.333-0.3-0.611-0.3-0.879c0-0.383,0.225-0.554,0.675-0.554h0.149c0.782,1,1.644,2.419,2.584,3.001
		c0.94,0.583,2.076,0.864,3.408,0.864c2.613,0,4.502-1.309,5.667-3.756c0.051,0,0.083-0.109,0.101-0.109h0.074
		c0.433,0,0.649,0.295,0.649,0.729c0,0.316-0.142,0.73-0.425,1.163c-1.048,1.531-2.338,2.501-3.869,2.866l0.225,2.357
		c0.116,1.432,0.874,2.544,2.271,3.325c1.299,0.749,3.088,1.125,5.368,1.125c3.479,0,6.142-0.971,7.989-2.918
		C36.077,30.791,35.319,23.128,33.806,10.111z M11.236,20.011c-1.591,0-2.886-1.295-2.886-2.886s1.295-2.886,2.886-2.886
		c1.592,0,2.887,1.295,2.887,2.886S12.828,20.011,11.236,20.011z M24.463,20.011c-1.592,0-2.887-1.295-2.887-2.886
		s1.295-2.886,2.887-2.886c1.591,0,2.886,1.295,2.886,2.886S26.054,20.011,24.463,20.011z"/>
</g>
</svg>
