<?xml version="1.0" encoding="utf-8"?>
<!-- Generator: Adobe Illustrator 16.0.0, SVG Export Plug-In . SVG Version: 6.00 Build 0)  -->
<!DOCTYPE svg PUBLIC "-//W3C//DTD SVG 1.1//EN" "http://www.w3.org/Graphics/SVG/1.1/DTD/svg11.dtd">
<svg version="1.1" id="Layer_1" xmlns="http://www.w3.org/2000/svg" xmlns:xlink="http://www.w3.org/1999/xlink" x="0px" y="0px"
	 width="13.885px" height="27.586px" viewBox="0 0 13.885 27.586" enable-background="new 0 0 13.885 27.586" xml:space="preserve">
<path d="M0.001,13.506c0-0.003,0-0.006,0-0.009c0.01-0.254,0.106-0.506,0.294-0.707l11.71-12.448c0.412-0.438,1.1-0.458,1.537-0.047
	s0.459,1.1,0.047,1.537L2.553,13.564L13.49,25.771c0.399,0.447,0.362,1.136-0.085,1.537c-0.207,0.186-0.467,0.276-0.727,0.276
	c-0.299,0-0.596-0.123-0.811-0.36L0.277,14.283c-0.182-0.203-0.272-0.455-0.276-0.708C-0.001,13.553,0.001,13.529,0.001,13.506z"/>
</svg>
