<?xml version="1.0" encoding="utf-8"?>
<!-- Generator: Adobe Illustrator 16.0.0, SVG Export Plug-In . SVG Version: 6.00 Build 0)  -->
<!DOCTYPE svg PUBLIC "-//W3C//DTD SVG 1.1//EN" "http://www.w3.org/Graphics/SVG/1.1/DTD/svg11.dtd">
<svg version="1.1" id="Layer_1" xmlns="http://www.w3.org/2000/svg" xmlns:xlink="http://www.w3.org/1999/xlink" x="0px" y="0px"
	 width="26px" height="32px" viewBox="0 0 26 32" enable-background="new 0 0 26 32" xml:space="preserve">
<g>
	<g>
		<g>
			<path fill="#FFFFFF" d="M12.778,18c-4.963,0-9-4.038-9-9s4.037-9,9-9c4.962,0,9,4.038,9,9S17.74,18,12.778,18z M12.778,2
				c-3.859,0-7,3.14-7,7s3.141,7,7,7s7-3.14,7-7S16.639,2,12.778,2z"/>
		</g>
	</g>
	<g>
		<path fill="#FFFFFF" d="M25,32H1c-0.284,0-0.556-0.121-0.745-0.333s-0.28-0.495-0.249-0.776l1-9
			c0.041-0.367,0.28-0.682,0.623-0.818l5-2l0.742,1.857l-4.443,1.776L2.117,30h21.766l-0.811-7.294l-4.443-1.776l0.742-1.857l5,2
			c0.343,0.137,0.582,0.451,0.623,0.818l1,9c0.031,0.282-0.061,0.564-0.249,0.776S25.284,32,25,32z"/>
	</g>
</g>
</svg>
