<?xml version="1.0"?>
<!--Icons from directory ""-->
<svg xmlns="http://www.w3.org/2000/svg" width="14" height="56" viewBox="0 0 14 56"><svg xmlns:xlink="http://www.w3.org/1999/xlink" id="mood-icon-a" xml:space="preserve" height="28" viewBox="0 0 13.885 27.586" width="14" version="1.1" y="0" x="0px" enable-background="new 0 0 13.885 27.586"><path d="m0.001 13.506v-0.009c0.01-0.254 0.106-0.506 0.294-0.707l11.71-12.448c0.412-0.438 1.1-0.458 1.537-0.047s0.459 1.1 0.047 1.537l-11.036 11.732 10.937 12.208c0.4 0.448 0.362 1.135-0.085 1.536-0.207 0.186-0.467 0.278-0.726 0.278-0.298 0-0.595-0.123-0.81-0.362l-11.592-12.941c-0.182-0.203-0.272-0.455-0.276-0.708-0.002-0.022 0-0.046 0-0.069z"/></svg><svg xmlns:xlink="http://www.w3.org/1999/xlink" id="mood-icon-b" xml:space="preserve" height="28" viewBox="0 0 13.885 27.586" width="14" version="1.1" y="28" x="0px" enable-background="new 0 0 13.885 27.586"><path d="m13.884 13.506v-0.009c-0.01-0.254-0.106-0.506-0.294-0.707l-11.71-12.448c-0.412-0.438-1.1-0.458-1.537-0.047s-0.459 1.1-0.047 1.537l11.036 11.731-10.937 12.209c-0.4 0.448-0.362 1.135 0.085 1.536 0.207 0.186 0.467 0.278 0.726 0.278 0.298 0 0.595-0.123 0.81-0.362l11.593-12.94c0.182-0.203 0.272-0.455 0.276-0.708 0.001-0.023-0.001-0.047-0.001-0.07z"/></svg></svg>
