<?xml version="1.0" encoding="utf-8"?>
<!-- Generator: Adobe Illustrator 16.0.0, SVG Export Plug-In . SVG Version: 6.00 Build 0)  -->
<!DOCTYPE svg PUBLIC "-//W3C//DTD SVG 1.1//EN" "http://www.w3.org/Graphics/SVG/1.1/DTD/svg11.dtd">
<svg version="1.1" id="Layer_1" xmlns="http://www.w3.org/2000/svg" xmlns:xlink="http://www.w3.org/1999/xlink" x="0px" y="0px"
	 width="11.998px" height="12px" viewBox="0 0 11.998 12" enable-background="new 0 0 11.998 12" xml:space="preserve">
<path fill="#808080" d="M7.412,6l4.293-4.293c0.392-0.391,0.392-1.023,0-1.414s-1.022-0.391-1.414,0L5.998,4.586L1.707,0.295
	c-0.391-0.391-1.023-0.391-1.414,0s-0.391,1.023,0,1.414L4.585,6l-4.292,4.293c-0.391,0.391-0.391,1.023,0,1.414
	C0.488,11.902,0.744,12,1,12s0.512-0.098,0.707-0.293l4.292-4.293l4.292,4.293C10.485,11.902,10.742,12,10.998,12
	s0.512-0.098,0.707-0.293c0.392-0.391,0.392-1.023,0-1.414L7.412,6z"/>
</svg>
