<?xml version="1.0" encoding="utf-8"?>
<!-- Generator: Adobe Illustrator 16.0.0, SVG Export Plug-In . SVG Version: 6.00 Build 0)  -->
<!DOCTYPE svg PUBLIC "-//W3C//DTD SVG 1.1//EN" "http://www.w3.org/Graphics/SVG/1.1/DTD/svg11.dtd">
<svg version="1.1" id="Layer_1" xmlns="http://www.w3.org/2000/svg" xmlns:xlink="http://www.w3.org/1999/xlink" x="0px" y="0px"
	 width="13.885px" height="27.586px" viewBox="0 0 13.885 27.586" enable-background="new 0 0 13.885 27.586" xml:space="preserve">
<path fill="#FFFFFF" d="M13.884,13.506c0-0.003,0-0.006,0-0.009c-0.01-0.254-0.105-0.506-0.294-0.707L1.88,0.342
	c-0.412-0.438-1.1-0.458-1.537-0.047s-0.459,1.1-0.047,1.537l11.036,11.731L0.395,25.771c-0.4,0.448-0.362,1.136,0.085,1.537
	c0.207,0.186,0.467,0.277,0.726,0.277c0.298,0,0.595-0.123,0.81-0.361l11.592-12.94c0.183-0.203,0.272-0.455,0.276-0.708
	C13.886,13.553,13.884,13.529,13.884,13.506z"/>
</svg>
