<?xml version="1.0" encoding="utf-8"?>
<!-- Generator: Adobe Illustrator 16.0.0, SVG Export Plug-In . SVG Version: 6.00 Build 0)  -->
<!DOCTYPE svg PUBLIC "-//W3C//DTD SVG 1.1//EN" "http://www.w3.org/Graphics/SVG/1.1/DTD/svg11.dtd">
<svg version="1.1" id="Layer_1" xmlns="http://www.w3.org/2000/svg" xmlns:xlink="http://www.w3.org/1999/xlink" x="0px" y="0px"
	 width="36.077px" height="33.131px" viewBox="0 0 36.077 33.131" enable-background="new 0 0 36.077 33.131" xml:space="preserve">
<g>
	<circle fill="#435353" cx="24.629" cy="14.062" r="1.886"/>
	<circle fill="#435353" cx="11.402" cy="14.062" r="1.886"/>
	<path fill="#435353" d="M33.805,7.216c-0.1-0.85-0.175-1.457-0.225-1.822c-0.217-1.948-0.912-3.334-2.085-4.158
		C30.322,0.412,28.521,0,26.09,0c-1.298,0-2.497,0.138-3.595,0.412s-1.989,0.595-2.671,0.961l-2.372,9.862
		c-0.666-0.017-0.999-0.316-0.999-0.898c0-0.233,0.033-0.475,0.1-0.725l0.874-3.67l-1.373-4.594C14.456,0.449,12.441,0,10.012,0
		c-3.346,0-5.876,0.766-7.59,2.297c-0.283,1.781-0.658,4.91-1.124,9.388C0.433,20.272,0,25.657,0,27.838
		c0,1.748,0.982,3.112,2.946,4.095c1.598,0.799,3.416,1.198,5.455,1.198c2.039,0,3.611-0.146,4.719-0.437
		c1.106-0.291,2.16-0.762,3.158-1.41l0.2-4.719c-0.866-0.101-1.689-0.416-2.472-0.949c-0.999-0.633-1.831-1.506-2.497-2.621
		c-0.2-0.334-0.3-0.696-0.3-0.962c0-0.383,0.225-0.637,0.674-0.637h0.15c0.782,2,1.644,2.501,2.584,3.084
		c0.94,0.584,2.076,0.906,3.408,0.906c2.613,0,4.502-1.372,5.667-3.818c0.05,0,0.083-0.172,0.1-0.172h0.075
		c0.433,0,0.649,0.379,0.649,0.812c0,0.316-0.142,0.773-0.425,1.205c-1.048,1.533-2.338,2.521-3.87,2.887l0.225,2.367
		c0.116,1.432,0.874,2.55,2.272,3.331c1.298,0.75,3.087,1.129,5.368,1.129c3.479,0,6.142-0.972,7.989-2.919
		C36.077,27.894,35.319,20.231,33.805,7.216z M11.402,16.948c-1.591,0-2.886-1.295-2.886-2.886s1.295-2.886,2.886-2.886
		c1.592,0,2.887,1.295,2.887,2.886S12.994,16.948,11.402,16.948z M24.629,16.948c-1.592,0-2.887-1.295-2.887-2.886
		s1.295-2.886,2.887-2.886c1.591,0,2.886,1.295,2.886,2.886S26.22,16.948,24.629,16.948z"/>
</g>
</svg>
