<?xml version="1.0" encoding="utf-8"?>
<!-- Generator: Adobe Illustrator 16.0.0, SVG Export Plug-In . SVG Version: 6.00 Build 0)  -->
<!DOCTYPE svg PUBLIC "-//W3C//DTD SVG 1.1//EN" "http://www.w3.org/Graphics/SVG/1.1/DTD/svg11.dtd">
<svg version="1.1" id="Layer_1" xmlns="http://www.w3.org/2000/svg" xmlns:xlink="http://www.w3.org/1999/xlink" x="0px" y="0px"
	 width="46.545px" height="40.727px" viewBox="0 0 46.545 40.727" enable-background="new 0 0 46.545 40.727" xml:space="preserve">
<path fill="#FFFFFF" d="M43.636,40.727H2.909C1.3,40.727,0,39.426,0,37.816V8.727c0-1.605,1.3-2.908,2.909-2.908h8.727v-2.91
	C11.636,1.303,12.937,0,14.545,0h17.454c1.609,0,2.909,1.303,2.909,2.908v2.91h8.728c1.608,0,2.909,1.303,2.909,2.908v29.09
	C46.545,39.426,45.244,40.727,43.636,40.727z M40.727,11.637h-8.728h-2.908V5.818H17.454v5.818h-2.909H5.818v23.271h34.908V11.637z
	 M10.182,14.545c0.803,0,1.454,0.652,1.454,1.455s-0.651,1.453-1.454,1.453S8.728,16.803,8.728,16S9.379,14.545,10.182,14.545z
	 M23.272,14.545c4.82,0,8.727,3.906,8.727,8.727c0,4.816-3.906,8.729-8.727,8.729s-8.728-3.912-8.728-8.729
	C14.545,18.451,18.452,14.545,23.272,14.545z M23.272,29.09c3.212,0,5.818-2.605,5.818-5.818c0-3.211-2.606-5.818-5.818-5.818
	s-5.818,2.607-5.818,5.818C17.454,26.484,20.061,29.09,23.272,29.09z"/>
</svg>
