<?xml version="1.0" encoding="utf-8"?>
<!-- Generator: Adobe Illustrator 16.0.0, SVG Export Plug-In . SVG Version: 6.00 Build 0)  -->
<!DOCTYPE svg PUBLIC "-//W3C//DTD SVG 1.1//EN" "http://www.w3.org/Graphics/SVG/1.1/DTD/svg11.dtd">
<svg version="1.1" id="Layer_1" xmlns="http://www.w3.org/2000/svg" xmlns:xlink="http://www.w3.org/1999/xlink" x="0px" y="0px"
	 width="38.94px" height="51.098px" viewBox="0 0 38.94 51.098" enable-background="new 0 0 38.94 51.098" xml:space="preserve">
<path fill="#FFFFFF" d="M25.632,21.031c3.162-2.033,5.262-5.572,5.262-9.609C30.894,5.113,25.779,0,19.472,0
	C13.163,0,8.049,5.113,8.049,11.422c0,4.037,2.099,7.576,5.262,9.609C5.86,21.697,0,27.973,0,35.594v11.855l0.03,0.188l0.817,0.254
	c7.694,2.404,14.382,3.207,19.886,3.207c10.748,0,16.978-3.066,17.363-3.26l0.764-0.389h0.08V35.594
	C38.94,27.975,33.082,21.699,25.632,21.031z"/>
</svg>
